<?xml version="1.0" encoding="utf-8"?>
<!-- Generator: Adobe Illustrator 26.5.0, SVG Export Plug-In . SVG Version: 6.00 Build 0)  -->
<svg version="1.1" id="Layer_1" xmlns="http://www.w3.org/2000/svg" xmlns:xlink="http://www.w3.org/1999/xlink" x="0px" y="0px"
	 viewBox="0 0 1366 768" style="enable-background:new 0 0 1366 768;" xml:space="preserve">
<style type="text/css">
	.st0{fill:#4E7252;}
</style>
<g>
	<g>
		<path class="st0" d="M579.71,356.32c-5.89,0.71-11.32,0.41-16.3-0.89c-4.98-1.3-9.45-3.44-13.4-6.43
			c-3.96-2.99-7.39-6.68-10.3-11.08c-2.91-4.4-5.22-9.28-6.95-14.64c-3.1-9.94-4.27-20.8-3.51-32.57c0.09-1.5,0.19-2.94,0.29-4.31
			c0.11-1.37,0.21-2.74,0.32-4.11c0.37-3.71,0.61-6.49,0.73-8.34c0.11-1.85-0.08-3.21-0.6-4.1c-0.51-0.89-1.34-1.53-2.47-1.94
			c-1.14-0.4-2.78-1.09-4.93-2.05c-8.49-4-14.47-10.2-17.92-18.62c-2.65-6.2-3.7-12.72-3.17-19.58c0.53-6.85,2.6-13.35,6.21-19.48
			c3.03-5.25,6.86-9.55,11.48-12.89c4.62-3.34,9.47-5.32,14.56-5.93c1.87-0.23,3.56,0.25,5.06,1.43c1.5,1.18,2.36,2.7,2.59,4.58
			c0.23,1.88-0.25,3.59-1.42,5.16c-1.17,1.57-2.69,2.46-4.56,2.69c-2.95,0.35-5.82,1.58-8.62,3.68c-2.8,2.1-5.21,4.9-7.24,8.41
			c-2.48,4.24-3.91,8.69-4.3,13.35c-0.39,4.66,0.34,9.06,2.2,13.18c1.13,2.58,2.51,4.76,4.15,6.53c1.64,1.77,3.47,3.22,5.51,4.33
			c2.87,1.28,4.77,1.87,5.71,1.76c0.8-0.1,1.4-0.51,1.79-1.23c0.39-0.73,0.83-1.86,1.32-3.42c2-7.03,4.87-14.23,8.6-21.6
			c3.73-7.37,8.2-14.19,13.42-20.45c5.22-6.26,11.13-11.59,17.73-15.98c6.6-4.39,13.84-7.06,21.74-8.01
			c4.15-0.5,7.55-0.16,10.2,1.01c2.65,1.18,4.74,2.48,6.28,3.93c3.1,3.16,4.99,7.31,5.67,12.45c0.69,5.15,0.08,11.09-1.82,17.84
			c-1.87,7.02-5,13.43-9.39,19.26c-4.39,5.82-9.58,10.93-15.57,15.32c-5.99,4.39-12.45,7.95-19.39,10.68
			c-6.93,2.74-13.81,4.58-20.62,5.54c-1.88,0.23-3.37,0.48-4.49,0.74c-1.12,0.27-1.97,0.82-2.55,1.63c-0.58,0.82-1,2.09-1.27,3.82
			c-0.27,1.73-0.55,4.17-0.85,7.33c-0.11,1.37-0.22,2.71-0.33,4.01c-0.12,1.31-0.23,2.64-0.33,4.01
			c-0.55,10.11,0.28,18.98,2.49,26.58c2.21,7.61,5.67,13.57,10.4,17.89c5.98,5.66,13.38,7.96,22.21,6.9
			c8.16-0.98,15.21-3.63,21.14-7.94c5.93-4.31,10.93-9.56,15.01-15.76c4.07-6.19,7.2-12.95,9.37-20.27
			c2.17-7.32,3.59-14.42,4.26-21.29c0.07-1.64,0.72-3.04,1.94-4.2c1.21-1.16,2.63-1.84,4.23-2.04c0.67-0.08,1.14-0.07,1.43,0.03
			c1.92,0.18,3.48,1.01,4.68,2.49c1.2,1.48,1.71,3.19,1.53,5.11c-0.84,8.79-2.74,17.57-5.69,26.34
			c-2.95,8.78-6.98,16.76-12.08,23.96c-5.11,7.2-11.34,13.24-18.69,18.13C597.84,352.13,589.34,355.16,579.71,356.32z
			 M555.94,255.31c5.17-1.03,10.33-2.74,15.47-5.12c5.14-2.38,9.92-5.27,14.33-8.65c4.41-3.38,8.25-7.31,11.51-11.77
			c3.26-4.47,5.67-9.3,7.21-14.51c1.22-4.49,1.73-8.18,1.52-11.08c-0.21-2.89-0.85-4.82-1.92-5.78c-0.62-0.6-1.37-0.95-2.27-1.05
			c-0.9-0.1-1.88-0.08-2.95,0.05c-0.54,0.06-1.07,0.16-1.59,0.29c-0.53,0.13-0.99,0.22-1.39,0.27c-5.78,1.65-11.03,4.25-15.76,7.8
			c-4.73,3.56-8.99,7.67-12.77,12.33c-3.79,4.67-7.05,9.71-9.79,15.13c-2.74,5.42-5.08,10.83-7.01,16.22
			c-0.46,1.82-0.41,3.34,0.14,4.57c0.55,1.23,1.9,1.71,4.04,1.45L555.94,255.31z"/>
		<path class="st0" d="M652.08,334.98c-0.67,0.08-1.21,0.08-1.63-0.01c-5.39,0.38-9.69-0.67-12.9-3.13
			c-3.22-2.46-5.63-5.64-7.26-9.51c-1.62-3.88-2.71-8.16-3.28-12.84c-0.21-1.74-0.29-5.5-0.24-11.27
			c0.05-5.78,0.22-12.52,0.52-20.22c0.29-7.7,0.59-15.96,0.89-24.75c0.3-8.79,0.63-17.05,0.99-24.76
			c0.36-7.71,0.67-14.44,0.93-20.17c0.26-5.73,0.42-9.49,0.48-11.26c0.13-2.32,0.88-3.94,2.27-4.85c1.38-0.91,3.08-1.49,5.09-1.73
			c1.91,0.04,3.49,0.77,4.74,2.18c1.25,1.41,1.86,3.07,1.82,4.97c-0.32,6.42-0.66,13.45-1.02,21.1c-0.37,7.65-0.73,15.36-1.08,23.14
			c-0.35,7.78-0.66,15.39-0.92,22.82c-0.26,7.43-0.47,14.14-0.63,20.14c-0.16,6-0.27,11.03-0.32,15.11
			c-0.05,4.08-0.01,6.72,0.14,7.93c0.48,4.02,1.84,7.14,4.08,9.39c2.24,2.25,4.69,3.2,7.37,2.88c3.48-0.42,6.5-2.41,9.06-5.98
			c2.56-3.57,4.74-7.7,6.55-12.4c1.81-4.7,3.25-9.42,4.3-14.16c1.06-4.74,1.84-8.43,2.33-11.07c0.22-1.52,0.95-2.79,2.19-3.83
			c1.23-1.03,2.58-1.64,4.06-1.81c0.8-0.1,1.41-0.1,1.83-0.02c1.95,0.45,3.46,1.42,4.53,2.92c1.06,1.5,1.44,3.22,1.13,5.16
			c-0.89,4.99-2.12,10.57-3.69,16.74c-1.57,6.17-3.71,12.02-6.44,17.58c-2.73,5.56-6.18,10.39-10.37,14.49
			C663.41,331.82,658.23,334.24,652.08,334.98z"/>
		<path class="st0" d="M708.26,328.01c-4.55,0.55-8.66,0.23-12.33-0.96c-3.67-1.19-6.88-3.04-9.63-5.56
			c-2.75-2.52-5.02-5.57-6.81-9.16c-1.79-3.58-3.13-7.43-4.04-11.53c-1.75-7.8-2.19-16.5-1.31-26.11
			c0.91-9.34,2.62-17.12,5.13-23.33s5.36-11.27,8.56-15.18c3.19-3.91,6.45-6.75,9.77-8.51c3.32-1.75,6.25-2.79,8.79-3.09
			c5.08-0.61,9.26,0.55,12.54,3.48c3.27,2.93,5.21,6.88,5.8,11.83c0.56,4.69,0.15,9.42-1.24,14.2c-1.39,4.79-3.47,9.25-6.23,13.38
			c-2.76,4.14-6.05,7.86-9.86,11.17c-3.81,3.31-7.84,5.9-12.1,7.77c-2.82,1.43-4.72,3.11-5.7,5.06c-0.99,1.95-1.08,4.58-0.27,7.87
			c0.52,2.11,1.24,4.13,2.15,6.05c0.91,1.93,2.1,3.62,3.56,5.07c1.46,1.45,3.16,2.54,5.08,3.26c1.92,0.72,4.08,0.93,6.49,0.64
			c5.08-0.61,9.58-2.48,13.48-5.59c3.9-3.12,7.25-6.88,10.05-11.29c2.79-4.41,5.01-9.16,6.64-14.24c1.63-5.08,2.64-9.89,3.05-14.42
			c0.21-1.65,0.89-2.99,2.06-4.02c1.17-1.02,2.48-1.62,3.96-1.8c0.93-0.11,1.61-0.12,2.03-0.04c1.94,0.31,3.44,1.22,4.5,2.72
			c1.06,1.5,1.44,3.22,1.13,5.16c0.02,0.13-0.11,1.03-0.39,2.69c-0.28,1.66-0.7,3.75-1.28,6.26c-0.58,2.51-1.36,5.36-2.33,8.53
			c-0.98,3.17-2.29,6.35-3.94,9.54c-4.34,9.08-9.67,16.13-15.98,21.17C723.27,324.07,716.16,327.06,708.26,328.01z M708.04,238.23
			c-1.07,0.13-2.52,0.78-4.35,1.95c-1.83,1.17-3.74,3.03-5.74,5.58c-1.65,2.1-3.28,4.91-4.89,8.43c-1.61,3.52-2.95,8.2-4.01,14.03
			c-0.45,3.04,0.46,4.42,2.74,4.15c0.67-0.08,1.77-0.55,3.29-1.41c2.13-1.48,4.21-3.36,6.25-5.64c2.03-2.28,3.81-4.74,5.32-7.36
			c1.52-2.63,2.68-5.38,3.49-8.26c0.8-2.88,1.06-5.59,0.75-8.13c-0.1-0.8-0.25-1.46-0.44-1.98c-0.2-0.52-0.38-0.9-0.55-1.16
			C709.6,238.18,708.98,238.11,708.04,238.23z"/>
		<path class="st0" d="M770.16,321.17c-0.67,0.08-1.34,0.13-2.02,0.14c-0.68,0.01-1.36-0.01-2.04-0.06
			c-3.56-0.25-6.91-1.58-10.05-3.98c-3.14-2.4-5.71-5.12-7.7-8.14c-2.52-4.04-4.52-9.6-5.98-16.69c-1.46-7.08-2.21-16.4-2.24-27.94
			c-0.11-4.33-0.08-8.57,0.1-12.74c0.18-4.16,0.35-8.05,0.53-11.67c0.18-3.62,0.42-6.9,0.75-9.86c0.32-2.96,0.58-5.33,0.77-7.12
			c0.07-1.64,0.72-3.01,1.95-4.1c1.22-1.1,2.64-1.74,4.25-1.94c0.67-0.08,1.14-0.07,1.43,0.03c1.94,0.31,3.47,1.21,4.6,2.7
			c1.13,1.49,1.61,3.2,1.43,5.12c-0.21,1.65-0.45,3.86-0.73,6.61c-0.28,2.75-0.52,5.87-0.71,9.35c-0.19,3.49-0.35,7.27-0.47,11.36
			c-0.12,4.09-0.14,8.16-0.06,12.23c0,6.79,0.27,12.42,0.81,16.91c0.54,4.48,1.11,8.11,1.72,10.89c0.6,2.78,1.26,4.87,1.98,6.28
			c0.71,1.41,1.24,2.43,1.59,3.07c0.66,1.01,1.62,2.18,2.87,3.52c1.25,1.35,2.63,2.13,4.15,2.35c1.61-0.19,2.92-0.52,3.96-0.99
			c1.03-0.46,2.08-1.3,3.16-2.52c1.8-1.98,3.53-4.73,5.22-8.26c1.68-3.53,3.38-7.7,5.11-12.53c0.61-1.7,0.94-3.71,1-6.03
			c0.06-2.31-0.03-4.71-0.25-7.2c-0.23-2.48-0.54-5.03-0.92-7.63c-0.38-2.6-0.71-5.04-0.98-7.31c-0.35-2.94-0.47-6.73-0.35-11.36
			c0.12-4.63,0.69-9.21,1.71-13.75c1.01-4.53,2.64-8.53,4.87-11.99c2.23-3.46,5.28-5.42,9.17-5.89c3.48-0.42,6.1,1.03,7.86,4.35
			c0.33,0.5,0.61,1.15,0.84,1.93c0.23,0.79,0.43,1.85,0.59,3.19c0.16,1.34,0.23,3.03,0.2,5.07c-0.03,2.04-0.13,4.57-0.31,7.57
			c-0.34,3.98-0.8,8.28-1.4,12.9c-0.6,4.62-1.37,9.23-2.31,13.82c-0.75,3.89-0.16,7.12,1.77,9.66c1.94,2.55,4.31,3.66,7.12,3.32
			c2.67-0.32,4.83-1.29,6.47-2.92c1.64-1.62,2.96-3.34,3.96-5.16c1-1.82,1.86-4.26,2.58-7.34c0.67-3.47,2.67-5.41,6.02-5.82
			c0.53-0.06,1.22-0.01,2.05,0.16c1.94,0.31,3.44,1.25,4.52,2.82c1.07,1.57,1.45,3.32,1.14,5.26c0.02,0.13-0.09,0.66-0.32,1.57
			c-0.23,0.91-0.53,2.07-0.91,3.47c-0.37,1.4-0.87,2.89-1.5,4.46c-0.63,1.57-1.34,3.01-2.13,4.33c-4.8,7.5-11.55,11.78-20.25,12.82
			c-2.81,0.34-5.25,0.4-7.31,0.17c-2.06-0.23-3.9-0.24-5.5-0.05c-1.47,0.18-2.76,0.74-3.87,1.69s-2.18,2.78-3.21,5.48
			c-1.02,2.84-2.26,5.74-3.74,8.7c-1.47,2.96-3.22,5.68-5.23,8.16c-2.01,2.48-4.3,4.59-6.88,6.33
			C776.47,319.7,773.51,320.77,770.16,321.17z"/>
		<path class="st0" d="M860.83,309.65c-4.55,0.55-8.66,0.23-12.33-0.96c-3.67-1.19-6.88-3.04-9.63-5.56
			c-2.75-2.52-5.02-5.57-6.81-9.16c-1.79-3.58-3.13-7.43-4.04-11.53c-1.75-7.8-2.19-16.5-1.31-26.11
			c0.91-9.34,2.62-17.12,5.13-23.33s5.36-11.27,8.56-15.19c3.19-3.91,6.45-6.75,9.77-8.51c3.32-1.75,6.25-2.79,8.79-3.09
			c5.08-0.61,9.26,0.55,12.54,3.48c3.27,2.93,5.21,6.88,5.8,11.83c0.56,4.69,0.15,9.42-1.24,14.2c-1.39,4.79-3.47,9.24-6.23,13.38
			c-2.76,4.13-6.05,7.86-9.86,11.17c-3.81,3.31-7.84,5.9-12.1,7.77c-2.82,1.43-4.72,3.11-5.7,5.06c-0.99,1.95-1.08,4.58-0.27,7.87
			c0.52,2.11,1.24,4.13,2.15,6.05c0.91,1.93,2.1,3.62,3.56,5.07c1.46,1.45,3.16,2.54,5.08,3.26c1.92,0.72,4.08,0.93,6.49,0.64
			c5.08-0.61,9.58-2.48,13.48-5.59c3.9-3.12,7.25-6.88,10.05-11.29c2.79-4.41,5.01-9.16,6.64-14.24c1.63-5.08,2.64-9.89,3.05-14.42
			c0.21-1.65,0.89-2.99,2.06-4.02c1.17-1.02,2.48-1.62,3.96-1.8c0.93-0.11,1.61-0.12,2.03-0.04c1.94,0.31,3.44,1.22,4.5,2.72
			c1.06,1.5,1.44,3.22,1.13,5.16c0.02,0.13-0.11,1.03-0.39,2.69c-0.28,1.66-0.7,3.75-1.28,6.26c-0.58,2.51-1.36,5.36-2.33,8.53
			c-0.98,3.17-2.29,6.35-3.94,9.54c-4.34,9.08-9.67,16.13-15.98,21.17C875.83,305.7,868.72,308.69,860.83,309.65z M860.61,219.86
			c-1.07,0.13-2.52,0.78-4.35,1.95c-1.83,1.17-3.74,3.03-5.74,5.58c-1.65,2.1-3.28,4.91-4.89,8.43c-1.61,3.52-2.95,8.2-4.01,14.03
			c-0.45,3.04,0.46,4.42,2.74,4.15c0.67-0.08,1.77-0.55,3.29-1.41c2.13-1.48,4.21-3.36,6.25-5.64c2.03-2.28,3.81-4.74,5.32-7.36
			c1.52-2.63,2.68-5.38,3.49-8.26c0.8-2.88,1.06-5.59,0.75-8.14c-0.1-0.8-0.25-1.46-0.44-1.98c-0.2-0.52-0.38-0.9-0.55-1.16
			C862.16,219.81,861.54,219.75,860.61,219.86z"/>
		<path class="st0" d="M953.99,298.63c-4.01,0.48-7.34,0.24-9.97-0.74c-2.63-0.97-4.7-2.11-6.22-3.43
			c-5.15-4.4-7.88-11.34-8.21-20.8c-0.09-2.97-0.13-6.13-0.12-9.46c0.01-3.33,0.08-6.69,0.21-10.11c0.13-3.41,0.29-6.65,0.46-9.73
			c0.17-3.08,0.38-5.85,0.63-8.32c0.08-2.72-0.96-4.57-3.11-5.53c-2.15-0.96-4.33-1.58-6.54-1.86c-1.79-0.19-3.69-0.17-5.69,0.07
			c-1.88,0.23-3.48,0.72-4.81,1.5c-1.33,0.77-2.02,2.11-2.06,4.02c-0.22,3.83-0.5,7.46-0.83,10.89c-0.33,3.44-0.76,6.34-1.29,8.71
			c-0.34,1.67-1.05,3.08-2.14,4.23c-1.08,1.15-2.43,1.82-4.04,2.01c-0.67,0.08-1.15,0.07-1.43-0.03c-1.92-0.18-3.51-0.97-4.77-2.38
			c-1.26-1.41-1.73-3.08-1.42-5.02c0.28-2.2,0.62-4.96,1.04-8.27c0.42-3.31,0.8-6.85,1.16-10.63c0.36-3.78,0.72-7.59,1.07-11.43
			c0.35-3.84,0.68-7.31,0.99-10.4c0.31-3.09,0.63-6.62,0.96-10.6c0.07-1.64,0.72-3.04,1.94-4.2c1.22-1.16,2.56-1.83,4.04-2.01
			c0.67-0.08,1.14-0.07,1.43,0.03c1.92,0.18,3.47,0.94,4.65,2.29c1.18,1.35,1.75,2.98,1.71,4.89c0.02,0.13,0.03,0.58,0.06,1.32
			c0.02,0.75,0.16,1.58,0.4,2.5c0.24,0.92,0.64,1.93,1.18,3.01c0.54,1.09,1.27,2.06,2.18,2.89c3.05,2.76,7.92,3.73,14.61,2.93
			c4.42-0.53,8.01,0.6,10.79,3.38c3.25,3.27,4.62,7.93,4.12,13.96c-0.22,1.52-0.45,3.86-0.68,7.01c-0.23,3.15-0.42,6.64-0.58,10.46
			c-0.15,3.82-0.29,7.77-0.4,11.86c-0.12,4.09-0.1,7.89,0.05,11.4c0.05,2.71,0.36,4.98,0.92,6.81c0.56,1.84,1.36,3.16,2.42,3.99
			c0.3,0.24,0.84,0.54,1.64,0.92c0.79,0.38,2.12,0.46,4,0.23c1.74-0.21,3.61-1.01,5.62-2.41c2-1.39,4.03-3.74,6.08-7.04
			c2.05-3.3,4.01-7.81,5.91-13.54c1.89-5.73,3.59-13.02,5.1-21.9c0.23-1.52,0.92-2.79,2.09-3.82c1.17-1.02,2.48-1.62,3.96-1.8
			c0.8-0.1,1.41-0.1,1.83-0.02c1.95,0.45,3.49,1.38,4.61,2.8c1.12,1.43,1.53,3.11,1.22,5.05c-0.89,5-2.05,10.6-3.48,16.81
			c-1.42,6.21-3.46,12.13-6.11,17.74c-2.65,5.61-6,10.47-10.06,14.55C965.05,295.5,960.02,297.91,953.99,298.63z"/>
		<path class="st0" d="M591.27,354.18c0.39-0.18,0.91-0.31,1.58-0.39c3.34-0.4,5.56,1.1,6.65,4.5c0.43,1.31,0.41,2.8-0.07,4.49
			c-0.48,1.69-1.63,2.84-3.45,3.47c-4.96,1.69-9.11,4.46-12.44,8.32c-3.34,3.86-6.21,8.25-8.6,13.15
			c-2.4,4.91-4.61,10.23-6.63,15.97c-2.03,5.74-4.2,11.33-6.53,16.77c-2.33,5.44-5.04,10.59-8.12,15.44
			c-3.08,4.85-6.93,8.98-11.54,12.39c-0.87,0.65-1.8,1.37-2.79,2.17c-0.99,0.8-1.73,1.67-2.23,2.61c-0.5,0.95-0.55,1.93-0.15,2.97
			c0.4,1.04,1.55,2.19,3.47,3.45c4.16,3.03,7.55,6.9,10.15,11.61c2.6,4.71,4.86,9.67,6.78,14.87c1.92,5.2,3.7,10.42,5.35,15.65
			c1.65,5.23,3.53,9.89,5.65,13.98c2.12,4.09,4.68,7.28,7.67,9.56c2.99,2.29,6.76,3.16,11.31,2.61c1.74-0.21,3.45-0.62,5.15-1.23
			l1-0.12c1.61-0.19,3.04,0.42,4.29,1.83c1.25,1.41,1.92,2.99,2,4.75c0.11,2.02-0.47,3.69-1.74,5c-1.27,1.3-2.84,2.07-4.71,2.3
			c-1.06,0.26-2.05,0.48-2.98,0.66c-0.93,0.18-1.93,0.33-3,0.46c-7.09,0.85-12.96-0.24-17.6-3.28c-4.64-3.04-8.49-7.12-11.56-12.25
			c-3.06-5.13-5.65-10.83-7.76-17.09c-2.11-6.26-4.15-12.23-6.13-17.9c-1.97-5.67-4.16-10.6-6.57-14.79
			c-2.41-4.19-5.5-6.74-9.27-7.64c-0.99-0.29-1.95-0.38-2.88-0.26c-1.74,0.21-2.81,2.04-3.21,5.48c-0.43,6.57-1.35,13.6-2.75,21.1
			c-1.41,7.5-3.65,14.49-6.74,20.97c-3.09,6.48-7.21,12.03-12.35,16.66c-5.15,4.62-11.73,7.42-19.76,8.39
			c-3.88,0.47-7.37,0.51-10.47,0.14c-3.1-0.38-5.92-0.95-8.46-1.73c-2.54-0.78-4.75-1.67-6.63-2.66c-1.89-0.99-3.63-1.94-5.23-2.83
			c-0.29-0.1-0.47-0.22-0.55-0.34c-0.09-0.13-0.27-0.24-0.55-0.34c-1.6-0.9-2.69-2.29-3.25-4.19c-0.57-1.9-0.34-3.66,0.69-5.28
			c1.25-2.05,2.94-3.21,5.08-3.46c1.34-0.16,2.73,0.15,4.18,0.92c0.3,0.24,0.55,0.38,0.76,0.42c0.21,0.04,0.46,0.18,0.76,0.42
			c2.62,1.45,5.6,2.86,8.96,4.22c3.35,1.36,7.77,1.71,13.26,1.05c4.15-0.5,7.72-1.88,10.7-4.14s5.56-5.08,7.74-8.47
			c2.17-3.38,3.92-7.19,5.24-11.42c1.32-4.23,2.44-8.51,3.34-12.82c0.91-4.32,1.55-8.57,1.93-12.76c0.38-4.19,0.7-7.99,0.97-11.42
			c-1.88,2.4-4.55,4.76-8.01,7.07c-3.46,2.32-8.19,3.84-14.22,4.56c-6.96,0.84-13.64-0.19-20.03-3.09
			c-6.39-2.9-11.85-7.33-16.37-13.3c-5.64-7.33-8.93-16.1-9.89-26.3c-0.54-6.72-0.13-13.19,1.23-19.39c1.36-6.2,3.58-12,6.66-17.4
			c3.08-5.39,6.94-10.27,11.58-14.63c4.63-4.36,9.97-7.99,16-10.89c8.86-4.19,18.65-6.93,29.35-8.22c2.94-0.35,5.9-0.61,8.87-0.76
			c2.97-0.15,6.02-0.15,9.17,0.02c1.5,0.09,2.84,0.54,4.03,1.35c1.18,0.81,1.99,1.87,2.42,3.17c1.02,2.87,0.51,5.37-1.54,7.52
			c-0.24,0.3-0.77,1.49-1.61,3.55c-0.84,2.07-1.5,6.12-2,12.15c-0.52,4.68-0.81,9.91-0.86,15.68c-0.05,5.78-0.1,11.86-0.15,18.24
			c0.05,0.4,0.08,1.52,0.1,3.35c0.02,1.83,0.02,3.84,0.01,6.01c-0.01,2.18,0.26,3.84,0.8,4.99c0.55,1.16,1.55,1.65,3.03,1.47
			c1.34-0.16,2.7-0.66,4.09-1.51c4.09-2.12,7.6-5.43,10.52-9.92c2.92-4.49,5.57-9.53,7.96-15.11c2.38-5.58,4.76-11.5,7.13-17.76
			c2.37-6.26,5.05-12.18,8.04-17.77c2.99-5.58,6.56-10.63,10.7-15.14C580.4,359.53,585.4,356.24,591.27,354.18z M505.62,425.99
			c0.78,0.86,1.56,1.71,2.35,2.57c0.78,0.86,1.5,1.79,2.17,2.79c-0.05-3.79-0.09-8.03-0.11-12.71c-0.02-4.68,0.05-9.48,0.2-14.38
			c0.15-4.91,0.43-9.66,0.83-14.25c0.4-4.6,1-8.64,1.8-12.13c-1.09,0-2.13,0.05-3.14,0.17c-1,0.12-2.04,0.25-3.11,0.37
			c-11.78,1.42-21.77,4.66-29.99,9.72c-8.22,5.06-14.07,11.67-17.57,19.83c-3.48,8.29-5.02,16.39-4.61,24.28
			c0.41,7.89,2.8,14.83,7.19,20.82c3.06,3.98,6.64,6.91,10.73,8.79c4.1,1.88,8.42,2.55,12.97,2c4.95-0.6,8.99-2.34,12.1-5.22
			c3.12-2.89,4.35-7.01,3.71-12.36c-0.18-1.47-0.61-3.08-1.29-4.83c-0.69-1.75-1.65-3.29-2.9-4.64c-1.25-1.34-2.8-2.41-4.66-3.21
			c-1.86-0.79-4.06-1.04-6.6-0.73c-1.88,0.23-3.57-0.28-5.07-1.53c-1.51-1.24-2.37-2.8-2.6-4.68c-0.22-1.87,0.25-3.56,1.43-5.06
			c1.17-1.5,2.7-2.36,4.58-2.59c4.02-0.48,7.86-0.13,11.53,1.05C499.21,421.27,502.57,423.24,505.62,425.99z"/>
		<path class="st0" d="M600,511.37c-4.03,0.35-7.42-0.19-10.17-1.63c-2.75-1.43-5.06-3.36-6.91-5.79c-1.85-2.42-3.28-5.24-4.28-8.45
			c-1-3.2-1.7-6.48-2.1-9.83c-0.21-1.74-0.28-4.62-0.22-8.63c0.06-4.01,0.19-8.61,0.38-13.79c0.19-5.18,0.42-10.57,0.7-16.17
			c0.27-5.6,0.56-10.86,0.85-15.78c0.29-4.92,0.56-9.16,0.81-12.72c0.25-3.56,0.38-5.88,0.38-6.97c0.06-1.77,0.66-3.24,1.81-4.39
			c1.15-1.16,2.53-1.83,4.13-2.03c0.67-0.08,1.14-0.07,1.43,0.03c1.9,0.04,3.49,0.8,4.75,2.28c1.26,1.48,1.81,3.18,1.63,5.1
			c-0.48,6.17-0.94,13.05-1.39,20.63c-0.45,7.59-0.83,14.87-1.14,21.83c-0.32,6.96-0.53,13.1-0.64,18.41
			c-0.11,5.31-0.06,8.83,0.15,10.57c0.42,3.48,1.01,6.16,1.78,8.03c0.77,1.88,1.58,3.24,2.43,4.09c0.85,0.85,1.72,1.32,2.61,1.42
			c0.89,0.1,1.61,0.11,2.14,0.05c4.01-0.48,7.44-2.49,10.27-6.02c2.83-3.53,5.22-7.65,7.17-12.37c1.94-4.71,3.46-9.54,4.57-14.5
			c1.1-4.95,1.93-9.02,2.5-12.21c0.22-1.52,0.95-2.79,2.19-3.83c1.23-1.03,2.58-1.64,4.06-1.81c0.8-0.1,1.41-0.1,1.83-0.02
			c1.95,0.45,3.46,1.39,4.51,2.82c1.05,1.44,1.43,3.12,1.12,5.06c-0.96,5.55-2.18,11.46-3.67,17.75
			c-1.48,6.29-3.62,12.18-6.43,17.68c-2.8,5.5-6.38,10.21-10.72,14.12C612.21,508.2,606.69,510.56,600,511.37z M586.8,398.3
			c-1.91-0.04-3.49-0.77-4.74-2.18c-1.26-1.41-1.86-3.07-1.82-4.97l0.09-2.66c0.16-2.06,0.92-3.6,2.29-4.65
			c1.37-1.05,2.99-1.68,4.86-1.91c1.9,0.04,3.48,0.77,4.74,2.18c1.25,1.41,1.86,3.07,1.82,4.97l-0.09,2.66
			c-0.13,2.33-0.85,3.94-2.17,4.84C590.47,397.48,588.81,398.06,586.8,398.3z"/>
		<path class="st0" d="M607.06,409.3c-0.23-1.87,0.25-3.56,1.43-5.06c1.18-1.5,2.7-2.36,4.58-2.59l8.43-1.01
			c1.07-0.13,2.09-0.62,3.08-1.49c0.98-0.86,1.48-1.84,1.48-2.93c0.35-7.24,0.65-13.45,0.91-18.64c0.26-5.19,0.41-8.67,0.47-10.44
			c0.13-2.32,0.88-3.94,2.27-4.85c1.38-0.91,3.08-1.49,5.09-1.73c1.91,0.04,3.49,0.77,4.74,2.18c1.25,1.41,1.86,3.07,1.82,4.97
			c-0.19,4.1-0.41,8.43-0.67,13.01c-0.26,4.58-0.45,9.25-0.55,14.02c-0.17,0.83,0.02,1.63,0.59,2.37c0.56,0.75,1.58,1.03,3.05,0.85
			l8.03-0.97c1.87-0.23,3.56,0.25,5.06,1.43c1.5,1.18,2.36,2.7,2.59,4.58c0.23,1.88-0.25,3.56-1.43,5.06
			c-1.18,1.5-2.7,2.36-4.58,2.59l-9.43,1.13c-1.47,0.18-2.66,0.76-3.56,1.75c-0.9,0.99-1.4,2.17-1.51,3.54
			c-0.2,7.36-0.43,14.45-0.7,21.26c-0.27,6.82-0.47,12.99-0.62,18.51c-0.15,5.52-0.24,10.14-0.26,13.88
			c-0.03,3.74,0.03,6.14,0.16,7.21c0.42,3.48,1.01,6.16,1.78,8.04c0.77,1.88,1.57,3.21,2.42,3.99c0.84,0.78,1.67,1.22,2.5,1.33
			c0.83,0.1,1.57,0.12,2.24,0.04l0.8-0.1c3.34-0.4,6.28-1.94,8.81-4.63c2.53-2.68,4.75-5.97,6.65-9.86
			c1.91-3.89,3.46-8.22,4.65-12.98c1.19-4.76,2.19-9.43,3-14.01c0.36-1.53,1.05-2.81,2.09-3.81c1.03-1.01,2.28-1.6,3.76-1.78
			c0.4-0.05,0.77-0.06,1.12-0.03c0.34,0.03,0.72,0.08,1.14,0.17c1.94,0.31,3.44,1.22,4.5,2.72c1.06,1.5,1.44,3.22,1.13,5.16
			c-0.91,4.86-2.13,10.24-3.66,16.12c-1.53,5.89-3.65,11.44-6.35,16.65c-2.7,5.21-6.06,9.69-10.09,13.43
			c-4.03,3.74-9.06,5.98-15.08,6.7l-1.61,0.19c-4.05,0.22-7.44-0.36-10.19-1.73c-2.75-1.37-5.04-3.26-6.9-5.69s-3.28-5.24-4.28-8.45
			c-1-3.21-1.7-6.48-2.1-9.83c-0.16-1.34-0.24-4.01-0.25-8.01c0-4,0.06-8.8,0.2-14.38c0.14-5.58,0.32-11.71,0.53-18.39
			c0.21-6.68,0.46-13.36,0.74-20.05c0.04-0.82-0.11-1.78-0.45-2.9c-0.34-1.11-1.64-1.53-3.92-1.26l-6.02,0.72
			c-1.87,0.22-3.56-0.25-5.06-1.43C608.15,412.7,607.29,411.18,607.06,409.3z"/>
		<path class="st0" d="M705.24,499.11c-4.55,0.55-8.66,0.23-12.33-0.96c-3.67-1.19-6.88-3.04-9.63-5.56
			c-2.75-2.52-5.02-5.57-6.81-9.16c-1.79-3.58-3.13-7.43-4.04-11.53c-1.75-7.8-2.19-16.5-1.31-26.11
			c1.63-15.81,5.83-28.26,12.61-37.36c2.47-3.15,5.36-5.94,8.67-8.37c3.3-2.44,7.03-3.9,11.18-4.4c6.02-0.72,10.85,1.07,14.5,5.38
			c3.59,3.91,5.63,9.57,6.12,16.98c0.19,2.7,0.18,5.45-0.03,8.25c-0.21,2.81-0.55,5.53-1.05,8.17c-0.97,3.24-2.99,5.04-6.07,5.41
			c-0.4,0.05-1.15,0.01-2.26-0.13c-1.96-0.44-3.43-1.45-4.44-3.03c-1-1.57-1.29-3.34-0.84-5.29c0.97-4.32,1.28-8.54,0.92-12.63
			c-0.36-4.1-1.24-6.94-2.66-8.54c-0.3-0.23-0.6-0.47-0.9-0.71c-0.3-0.23-0.92-0.3-1.86-0.18c-1.07,0.13-2.53,0.75-4.36,1.85
			c-1.84,1.11-3.75,3-5.73,5.68c-1.87,2.54-3.81,6.16-5.82,10.88c-2.01,4.72-3.4,11.2-4.18,19.44c-0.82,7.84-0.56,14.83,0.79,20.98
			c1.35,6.15,3.57,10.74,6.65,13.76c2.79,2.92,6.53,4.1,11.22,3.54c4.42-0.53,8.34-2.05,11.77-4.57c3.43-2.52,6.4-5.45,8.92-8.81
			c2.51-3.36,4.62-6.97,6.33-10.84c1.71-3.87,3.11-7.43,4.21-10.69c1.1-3.25,2.06-7.1,2.89-11.55c0.21-1.65,0.89-2.99,2.06-4.01
			c1.17-1.02,2.49-1.62,3.96-1.8c0.94-0.11,1.62-0.12,2.03-0.04c1.94,0.31,3.44,1.21,4.5,2.72c1.06,1.5,1.44,3.22,1.13,5.16
			c-1.28,6.26-3.06,12.66-5.33,19.17c-2.27,6.52-5.22,12.51-8.83,17.97c-3.62,5.46-8.05,10.1-13.29,13.92
			C718.7,495.89,712.47,498.24,705.24,499.11z"/>
		<path class="st0" d="M839.82,420.99c1.92,0.18,3.48,0.97,4.67,2.39c1.19,1.42,1.76,3.08,1.72,4.99c0.02,0.13-0.06,0.96-0.21,2.47
			c-0.16,1.52-0.43,3.45-0.83,5.8c-0.4,2.36-0.92,5.07-1.57,8.13c-0.65,3.07-1.53,6.23-2.62,9.48c-1.87,5.93-4.06,10.84-6.58,14.74
			c-2.52,3.9-5.13,7.03-7.83,9.39c-2.7,2.36-5.38,4.08-8.04,5.14c-2.66,1.07-5.19,1.74-7.6,2.03c-6.83,0.82-12.3-0.69-16.43-4.54
			c-5.63-5.02-8.2-13.95-7.7-26.77c0.15-4.36,0.3-7.91,0.45-10.64c0.14-2.73,0.28-5.26,0.41-7.59c0.18-1.92,0.31-3.87,0.42-5.85
			c0.1-1.98,0.19-4.33,0.27-7.06c0.3-6.55-0.08-11.36-1.13-14.42c-1.05-3.06-2.18-5.13-3.39-6.21c-0.32-0.37-1.12-0.85-2.42-1.44
			c-1.29-0.59-3.41-0.71-6.36-0.35c-4.15,0.5-8.08,4.54-11.78,12.11c-3.71,7.57-6.81,17.89-9.31,30.96c-1.1,5.56-1.97,11-2.62,16.3
			c-0.65,5.31-1.17,10.05-1.54,14.24c-0.38,4.19-0.66,8.87-0.85,14.05c-0.06,1.77-0.69,3.27-1.9,4.5c-1.21,1.23-2.62,1.95-4.22,2.14
			c-0.27,0.03-0.47,0.02-0.62-0.03c-0.14-0.05-0.34-0.06-0.61-0.03c-0.13,0.02-0.62-0.06-1.45-0.23c-1.65-0.21-3.04-0.99-4.15-2.35
			c-1.11-1.36-1.65-2.99-1.61-4.9l6.17-131.49c0.28-2.2,1.07-3.79,2.38-4.77c1.31-0.97,2.97-1.58,4.97-1.82
			c1.91,0.04,3.49,0.77,4.74,2.18c1.25,1.41,1.86,3.07,1.82,4.97c-0.17,3.14-0.33,6.05-0.48,8.71c-0.16,2.67-0.29,5.23-0.4,7.68
			c-0.11,2.46-0.25,5.02-0.4,7.69c-0.16,2.67-0.32,5.57-0.48,8.71c-0.18,3.01-0.04,5.03,0.42,6.06c0.46,1.03,1.1,1.5,1.9,1.4
			c0.93-0.11,1.92-0.64,2.97-1.58c1.04-0.94,2.06-1.74,3.07-2.41c1.96-1.73,3.94-3.05,5.94-3.97c1.99-0.92,4.33-1.54,7.01-1.86
			c7.76-0.93,14.08,0.82,18.96,5.25c6.68,5.85,9.76,16.27,9.26,31.27c-0.06,2.86-0.17,5.35-0.32,7.47
			c-0.15,2.12-0.25,4.14-0.29,6.04c-0.26,2.34-0.44,4.81-0.53,7.4c-0.09,2.59-0.23,6-0.4,10.23c-0.28,5.6,0.03,9.57,0.92,11.9
			c0.89,2.34,1.65,3.81,2.26,4.41c0.16,0.25,0.64,0.54,1.42,0.85c0.78,0.31,2.11,0.36,3.99,0.13c4.01-0.48,7.44-2.46,10.28-5.92
			c2.84-3.46,5.17-7.48,7-12.04c1.82-4.56,3.19-9.27,4.1-14.14c0.91-4.86,1.5-8.94,1.79-12.23c0.13-2.32,0.88-3.94,2.27-4.85
			C836.11,421.81,837.81,421.24,839.82,420.99z"/>
		<path class="st0" d="M867.32,478.58c-4.55,0.55-8.66,0.23-12.33-0.96c-3.67-1.19-6.88-3.04-9.63-5.56
			c-2.75-2.52-5.02-5.57-6.81-9.16c-1.79-3.58-3.13-7.43-4.04-11.53c-1.75-7.8-2.19-16.5-1.31-26.11
			c0.91-9.34,2.62-17.12,5.13-23.33c2.51-6.21,5.36-11.27,8.56-15.18c3.19-3.91,6.45-6.75,9.77-8.51c3.32-1.76,6.25-2.79,8.79-3.1
			c5.08-0.61,9.26,0.55,12.54,3.48c3.27,2.93,5.21,6.88,5.8,11.83c0.56,4.69,0.15,9.42-1.24,14.2c-1.39,4.79-3.47,9.25-6.23,13.38
			c-2.76,4.14-6.05,7.86-9.86,11.17c-3.81,3.31-7.84,5.9-12.1,7.77c-2.82,1.43-4.72,3.11-5.7,5.06c-0.99,1.95-1.08,4.58-0.27,7.87
			c0.52,2.11,1.24,4.13,2.15,6.05c0.91,1.93,2.1,3.62,3.56,5.07c1.46,1.45,3.16,2.54,5.08,3.26c1.92,0.72,4.08,0.93,6.49,0.65
			c5.08-0.61,9.58-2.48,13.48-5.6c3.9-3.12,7.25-6.88,10.05-11.29c2.79-4.41,5.01-9.16,6.64-14.24c1.63-5.08,2.64-9.89,3.05-14.42
			c0.21-1.65,0.89-2.99,2.06-4.02c1.17-1.02,2.48-1.62,3.96-1.8c0.93-0.11,1.61-0.12,2.03-0.04c1.94,0.31,3.44,1.21,4.5,2.72
			c1.06,1.5,1.44,3.22,1.13,5.16c0.02,0.13-0.11,1.03-0.39,2.69c-0.28,1.66-0.7,3.75-1.28,6.26c-0.58,2.51-1.36,5.36-2.33,8.53
			c-0.98,3.17-2.29,6.35-3.94,9.54c-4.34,9.08-9.67,16.13-15.98,21.17C882.32,474.63,875.21,477.62,867.32,478.58z M867.1,388.79
			c-1.07,0.13-2.52,0.78-4.35,1.95c-1.83,1.17-3.74,3.03-5.74,5.58c-1.65,2.1-3.28,4.91-4.89,8.43c-1.61,3.52-2.95,8.2-4.01,14.03
			c-0.45,3.04,0.46,4.42,2.74,4.15c0.67-0.08,1.77-0.55,3.29-1.42c2.13-1.48,4.21-3.36,6.25-5.64c2.03-2.28,3.81-4.74,5.32-7.36
			c1.52-2.63,2.68-5.38,3.49-8.26c0.8-2.88,1.06-5.59,0.75-8.13c-0.1-0.8-0.25-1.46-0.44-1.98c-0.2-0.52-0.38-0.9-0.55-1.16
			C868.65,388.74,868.03,388.68,867.1,388.79z"/>
		<path class="st0" d="M1002.01,401.47c1.91,0.04,3.46,0.81,4.66,2.29c1.2,1.49,1.77,3.18,1.73,5.09c0.02,0.13-0.06,0.96-0.21,2.47
			c-0.16,1.51-0.43,3.45-0.83,5.8c-0.4,2.36-0.92,5.07-1.57,8.13c-0.65,3.07-1.53,6.23-2.63,9.48c-1.87,5.93-4.06,10.84-6.58,14.74
			c-2.52,3.9-5.13,7.03-7.83,9.39c-2.71,2.36-5.38,4.08-8.04,5.14c-2.66,1.07-5.19,1.75-7.6,2.04c-6.83,0.82-12.3-0.69-16.43-4.54
			c-5.63-5.02-8.2-13.95-7.7-26.77c0.15-4.36,0.3-7.91,0.45-10.64c0.14-2.73,0.35-5.27,0.61-7.61c0.04-1.9,0.11-3.85,0.21-5.83
			c0.1-1.98,0.26-4.34,0.47-7.08c0.16-6.54-0.28-11.34-1.33-14.4c-1.05-3.06-2.18-5.14-3.39-6.21c-0.32-0.37-1.12-0.85-2.42-1.44
			c-1.29-0.59-3.41-0.71-6.36-0.35c-4.15,0.5-8.08,4.5-11.79,12.01c-3.71,7.51-6.75,17.79-9.12,30.83c-1.1,5.56-2,11.03-2.71,16.41
			c-0.71,5.38-1.25,10.17-1.63,14.35c-0.38,4.19-0.66,8.87-0.85,14.05c-0.16,2.06-0.92,3.61-2.29,4.65
			c-1.37,1.05-2.99,1.68-4.86,1.91c-0.27,0.03-0.82-0.04-1.66-0.21c-1.67-0.34-3.06-1.16-4.16-2.45c-1.1-1.29-1.64-2.89-1.6-4.8
			l5.11-92.87c0.28-2.2,1.07-3.79,2.38-4.77c1.31-0.97,2.97-1.58,4.97-1.82c1.92,0.18,3.51,0.97,4.77,2.38
			c1.25,1.41,1.86,3.07,1.82,4.97c0.11,0.94,0.57,1.36,1.37,1.26c0.8-0.1,1.79-0.59,2.98-1.48c1.18-0.89,2.08-1.57,2.71-2.06
			c3.93-3.46,8.16-5.53,12.69-6.21c8.16-0.98,14.76,0.8,19.79,5.36c6.68,5.85,9.76,16.27,9.26,31.27c-0.06,2.86-0.18,5.32-0.33,7.37
			c-0.16,2.06-0.25,4.11-0.28,6.14c-0.13,2.32-0.27,4.79-0.43,7.38c-0.16,2.6-0.33,6.02-0.5,10.24c-0.06,2.86-0.01,5.23,0.14,7.11
			c0.16,1.88,0.42,3.45,0.77,4.69c0.35,1.25,0.74,2.22,1.17,2.92c0.42,0.7,0.78,1.16,1.08,1.4c0.16,0.26,0.64,0.57,1.44,0.95
			c0.79,0.38,2.12,0.46,4,0.23c2.41-0.29,4.61-1.17,6.61-2.63c1.99-1.46,3.75-3.23,5.27-5.32c1.51-2.08,2.83-4.38,3.96-6.89
			c1.12-2.51,2.02-4.89,2.7-7.15c0.88-2.82,1.64-5.56,2.27-8.22c0.63-2.65,1.12-5.05,1.47-7.2c0.35-2.15,0.64-4.52,0.87-7.13
			c0.07-1.64,0.68-3.07,1.83-4.29c1.14-1.22,2.52-1.93,4.12-2.12c0.27-0.03,0.51-0.03,0.71,0.02
			C1001.51,401.5,1001.75,401.5,1002.01,401.47z"/>
	</g>
	<g>
		<path class="st0" d="M463.4,315.36c-0.95-7.87-1.88-16.71-2.31-21.95l-0.32,0.04c-1.04,9.67-3.8,25.6-6.48,40.56l-8.5,1.02
			c-4.88-12.22-11.76-29.15-14.89-38.12l-0.31,0.04c1.04,5.36,2.38,14.83,3.33,22.75l1.99,16.52l-9.09,1.09l-5.55-46.13l14.85-1.79
			c5.05,11.62,10.9,26.26,13.11,32.97l0.07-0.01c0.4-6.2,3.52-22.98,5.95-35.26l14.31-1.72l5.55,46.13l-9.62,1.16L463.4,315.36z"/>
		<path class="st0" d="M496.64,328.92l-1.96-16.3c-0.06-0.52-0.19-0.98-0.56-1.44l-19.32-26.43l11.29-1.36
			c4.4,6.53,10.15,15.23,13.05,19.97c1.43-5.08,5.31-15.4,7.99-22.5l10.44-1.26l-12.72,30.14c-0.15,0.35-0.31,0.58-0.2,1.52
			l1.98,16.46L496.64,328.92z"/>
	</g>
</g>
</svg>
